<?xml version="1.0" encoding="UTF-8" standalone="no"?>
<svg width="58px" height="64px" viewBox="0 0 58 64" version="1.1" xmlns="http://www.w3.org/2000/svg" xmlns:xlink="http://www.w3.org/1999/xlink">
    <title>Dollar Coin</title>
    <desc>Created with Sketch.</desc>
    <defs></defs>
    <g id="Page-1" stroke="red" stroke-width="1" fill="red" fill-rule="evenodd">
        <g id="Finance" transform="translate(-215.000000, -164.000000)" fill="#red">
            <g id="Dollar-Coin" transform="translate(215.000000, 164.000000)">
                <path d="M0,29 L0,35 C0,51.016 12.984,64 29,64 C45.016,64 58,51.016 58,35 L58,29 L56,29 L56,35 C56,49.888 43.888,62 29,62 C14.112,62 2,49.888 2,35 L2,29 L0,29 Z" id="Fill-1"></path>
                <path d="M29,0 C12.984,0 0,12.984 0,29 C0,45.016 12.984,58 29,58 C45.016,58 58,45.016 58,29 C58,12.984 45.016,0 29,0 M29,2 C43.888,2 56,14.112 56,29 C56,43.888 43.888,56 29,56 C14.112,56 2,43.888 2,29 C2,14.112 14.112,2 29,2" id="Fill-3"></path>
                <path d="M29,6 C16.297,6 6,16.297 6,29 C6,41.703 16.297,52 29,52 C41.703,52 52,41.703 52,29 C52,16.297 41.703,6 29,6 M29,8 C40.579,8 50,17.421 50,29 C50,40.579 40.579,50 29,50 C17.421,50 8,40.579 8,29 C8,17.421 17.421,8 29,8" id="Fill-5"></path>
                <path d="M29,63 L30,63 L30,57 L29,57 L29,63 Z" id="Fill-7" fill-opacity="0.5"></path>
                <path d="M34,62 L35,62 L35,56 L34,56 L34,62 Z" id="Fill-9" fill-opacity="0.5"></path>
                <path d="M39,61 L40,61 L40,55 L39,55 L39,61 Z" id="Fill-11" fill-opacity="0.5"></path>
                <path d="M44,59 L45,59 L45,53 L44,53 L44,59 Z" id="Fill-13" fill-opacity="0.5"></path>
                <path d="M49,54 L50,54 L50,48 L49,48 L49,54 Z" id="Fill-15" fill-opacity="0.5"></path>
                <path d="M53,49 L54,49 L54,43 L53,43 L53,49 Z" id="Fill-17" fill-opacity="0.5"></path>
                <path d="M24,63 L25,63 L25,57 L24,57 L24,63 Z" id="Fill-19" fill-opacity="0.5"></path>
                <path d="M19,61 L20,61 L20,55 L19,55 L19,61 Z" id="Fill-21" fill-opacity="0.5"></path>
                <path d="M14,59 L15,59 L15,53 L14,53 L14,59 Z" id="Fill-23" fill-opacity="0.5"></path>
                <path d="M9,56 L10,56 L10,50 L9,50 L9,56 Z" id="Fill-25" fill-opacity="0.5"></path>
                <path d="M5,50 L6,50 L6,44 L5,44 L5,50 Z" id="Fill-27" fill-opacity="0.5"></path>
                <path d="M28.9874,9.9556 C40.5664,9.9556 49.9874,19.1666 49.9874,30.4886 C49.9874,41.8106 40.5664,51.0226 28.9874,51.0226 C17.4084,51.0226 7.9874,41.8106 7.9874,30.4886 C7.9874,19.1666 17.4084,9.9556 28.9874,9.9556 M28.9874,51.9996 C41.5224,51.9996 51.7074,42.1936 51.9744,29.9996 C51.7074,17.8066 41.5224,7.9996 28.9874,7.9996 C16.4524,7.9996 6.2674,17.8066 6.0004,29.9996 C6.2674,42.1936 16.4524,51.9996 28.9874,51.9996" id="Fill-29" fill-opacity="0.5"></path>
                <path d="M29,40 C25.14,40 22,37.308 22,34 C22,33.448 22.448,33 23,33 C23.552,33 24,33.448 24,34 C24,36.206 26.244,38 29,38 C31.756,38 34,36.206 34,34 C34,31.794 31.756,30 29,30 C25.14,30 22,27.308 22,24 C22,20.692 25.14,18 29,18 C32.86,18 36,20.692 36,24 C36,24.552 35.552,25 35,25 C34.448,25 34,24.552 34,24 C34,21.794 31.756,20 29,20 C26.244,20 24,21.794 24,24 C24,26.206 26.244,28 29,28 C32.86,28 36,30.692 36,34 C36,37.308 32.86,40 29,40" id="Fill-31"></path>
                <path d="M29,42 C28.448,42 28,41.552 28,41 L28,17 C28,16.448 28.448,16 29,16 C29.552,16 30,16.448 30,17 L30,41 C30,41.552 29.552,42 29,42" id="Fill-33"></path>
            </g>
        </g>
    </g>
</svg>